<?xml version="1.0" standalone="no"?>
<!DOCTYPE svg PUBLIC "-//W3C//DTD SVG 20010904//EN"
 "http://www.w3.org/TR/2001/REC-SVG-20010904/DTD/svg10.dtd">
<svg version="1.0" xmlns="http://www.w3.org/2000/svg"
 width="290.000000pt" height="226.000000pt" viewBox="0 0 290.000000 226.000000"
 preserveAspectRatio="xMidYMid meet">
<metadata>
Created by potrace 1.16, written by Peter Selinger 2001-2019
</metadata>
<g transform="translate(0.000000,226.000000) scale(0.100000,-0.100000)"
fill="#fff" stroke="none">
<path d="M0 1155 l0 -1105 51 21 c161 63 446 183 456 191 10 8 13 213 15 939
l3 929 453 -520 c250 -286 457 -520 462 -520 4 0 212 234 461 520 250 286 457
520 461 520 4 0 9 -421 10 -937 l3 -936 247 -101 c136 -56 250 -105 254 -109
4 -4 -180 -7 -409 -7 l-417 0 0 620 c0 341 -3 620 -7 619 -5 0 -140 -160 -302
-355 -162 -195 -297 -354 -300 -354 -3 0 -139 160 -301 355 -162 195 -298 354
-302 355 -5 0 -8 -279 -8 -620 l0 -620 -415 0 c-408 0 -415 0 -415 -20 0 -20
7 -20 1450 -20 l1450 0 0 1130 0 1130 -1450 0 -1450 0 0 -1105z m1808 -877
l-3 -233 -362 -3 -363 -2 0 232 0 233 180 -180 181 -180 177 181 c97 100 180
182 185 183 4 1 6 -104 5 -231z"/>
</g>
</svg>
